<svg xmlns="http://www.w3.org/2000/svg" xmlns:xlink="http://www.w3.org/1999/xlink" version="1.1" width="256" height="256" viewBox="0 0 256 256" xml:space="preserve">
<g style="stroke: none; stroke-width: 0; stroke-dasharray: none; stroke-linecap: butt; stroke-linejoin: miter; stroke-miterlimit: 10; fill: none; fill-rule: nonzero; opacity: 1;" transform="translate(1.4065934065934016 1.4065934065934016) scale(2.81 2.81)">
	<path d="M 11.194 73.946 L 11.194 73.946 v 11.506 c 0 2.508 2.04 4.548 4.548 4.548 h 58.517 c 2.508 0 4.548 -2.04 4.548 -4.548 V 20.496 c 0 -1.214 -0.473 -2.356 -1.332 -3.216 L 61.526 1.332 C 60.667 0.473 59.525 0 58.31 0 H 15.742 c -2.508 0 -4.548 2.04 -4.548 4.548 V 73.946" style="stroke: none; stroke-width: 1; stroke-dasharray: none; stroke-linecap: butt; stroke-linejoin: miter; stroke-miterlimit: 10; fill: rgb(237,113,97); fill-rule: nonzero; opacity: 1;" transform=" matrix(1 0 0 1 0 0) " stroke-linecap="round"/>
	<path d="M 77.474 17.28 L 61.526 1.332 c -0.675 -0.676 -1.529 -1.102 -2.453 -1.258 v 15.382 c 0 2.358 1.919 4.277 4.277 4.277 h 15.382 C 78.576 18.81 78.15 17.956 77.474 17.28 z" style="stroke: none; stroke-width: 1; stroke-dasharray: none; stroke-linecap: butt; stroke-linejoin: miter; stroke-miterlimit: 10; fill: rgb(216,97,81); fill-rule: nonzero; opacity: 1;" transform=" matrix(1 0 0 1 0 0) " stroke-linecap="round"/>
	<path d="M 49.701 59.827 c -0.376 -0.515 -1.078 -0.695 -1.637 -0.389 c -1.239 0.68 -2.625 1.035 -4.064 1.035 c -3.608 0 -6.689 -2.272 -7.908 -5.456 h 2.991 c 0.368 0 0.707 -0.202 0.882 -0.526 c 0.175 -0.324 0.159 -0.718 -0.043 -1.025 l -8.317 -12.716 c -0.185 -0.283 -0.501 -0.454 -0.839 -0.454 s -0.654 0.171 -0.839 0.454 L 21.61 53.465 c -0.201 0.308 -0.218 0.702 -0.043 1.025 c 0.175 0.324 0.514 0.526 0.882 0.526 h 3.814 c 1.44 8.491 8.843 14.979 17.738 14.979 c 3.376 0 6.617 -0.923 9.454 -2.68 c 0.638 -0.395 0.795 -1.258 0.353 -1.863 L 49.701 59.827 z" style="stroke: none; stroke-width: 1; stroke-dasharray: none; stroke-linecap: butt; stroke-linejoin: miter; stroke-miterlimit: 10; fill: rgb(255,255,255); fill-rule: nonzero; opacity: 1;" transform=" matrix(1 0 0 1 0 0) " stroke-linecap="round"/>
	<path d="M 68.433 47.106 c -0.175 -0.324 -0.513 -0.525 -0.881 -0.525 h -3.886 C 62.063 38.288 54.753 32.005 46 32.005 c -3.05 0 -6.019 0.764 -8.666 2.221 c -0.655 0.36 -0.852 1.213 -0.442 1.838 l 3.815 5.828 c 0.348 0.531 1.038 0.751 1.61 0.475 c 1.141 -0.552 2.396 -0.839 3.683 -0.839 c 3.455 0 6.429 2.081 7.746 5.054 h -2.829 c -0.368 0 -0.707 0.202 -0.881 0.525 c -0.175 0.324 -0.159 0.718 0.043 1.026 l 8.317 12.716 c 0.185 0.283 0.501 0.454 0.839 0.454 c 0.338 0 0.654 -0.171 0.839 -0.454 l 8.317 -12.716 C 68.592 47.824 68.608 47.43 68.433 47.106 z" style="stroke: none; stroke-width: 1; stroke-dasharray: none; stroke-linecap: butt; stroke-linejoin: miter; stroke-miterlimit: 10; fill: rgb(255,255,255); fill-rule: nonzero; opacity: 1;" transform=" matrix(1 0 0 1 0 0) " stroke-linecap="round"/>
</g>
</svg>